<?xml version="1.0" encoding="utf-8"?>
<!-- Generator: Adobe Illustrator 22.1.0, SVG Export Plug-In . SVG Version: 6.00 Build 0)  -->
<svg version="1.1" id="Camada_1" xmlns="http://www.w3.org/2000/svg" xmlns:xlink="http://www.w3.org/1999/xlink" x="0px" y="0px"
	 viewBox="0 0 237.9 74.5" style="enable-background:new 0 0 237.9 74.5;" xml:space="preserve">
<style type="text/css">
	.st0{fill:url(#SVGID_1_);}
	.st1{fill:url(#SVGID_2_);}
	.st2{fill:url(#SVGID_3_);}
	.st3{fill:url(#SVGID_4_);}
	.st4{fill:url(#SVGID_5_);}
	.st5{fill:url(#SVGID_6_);}
</style>
<g>
	<path d="M104.4,36.7l7.3-7.3c0.3-0.3,0.3-1,0-1.3c-0.3-0.3-0.7-0.3-1.2,0L99,39.7v-11c0-0.4-0.4-0.8-0.8-0.8c-0.5,0-1,0.4-1,0.8
		v0.6h0.1V47c0,0.4,0.4,1,0.9,1c0.4,0,1-0.5,1-1v-4.8l4.2-4.2l7.3,9.6l0.2,0.2l0.2,0c0.1,0,0.2,0.1,0.3,0.1c0.3,0,0.3,0,0.6-0.3
		c0.3-0.3,0.3-0.7,0-1.1L104.4,36.7z"/>
	<path d="M120.3,28c-0.2-0.2-0.5-0.3-0.6-0.3c-0.5,0-1,0.4-1,0.9v18.2c0,0.5,0.4,0.9,1,0.9c0.4,0,0.8-0.4,0.8-0.9l0-18.1
		C120.5,28.4,120.4,28.2,120.3,28z"/>
	<path d="M142.8,28c-0.4,0-0.8,0.4-0.8,0.9v15.4l-11.5-16c-0.1-0.2-0.3-0.4-0.6-0.4c-0.1,0-0.4,0-0.5,0.1l-0.3,0.2l0,0.4
		c0,0.1-0.1,0.2-0.1,0.3V47c0,0.4,0.4,1,1,1c0.4,0,0.8-0.4,0.8-1V31.3l11.5,16.1c0.2,0.3,0.6,0.4,0.7,0.4c0.4,0,0.8-0.4,0.8-1v-18
		C143.5,28.4,143.3,28,142.8,28z"/>
	<path d="M160.7,29.5c0.5,0,0.8-0.3,0.8-0.9c0-0.5-0.3-0.8-0.8-0.8h-10.1l-0.1,0c-0.3,0.2-0.5,0.5-0.5,0.8v18.2c0,0.5,0.4,1,0.8,1
		h9.9c0.4,0,0.8-0.4,0.8-1c0-0.4-0.3-0.8-0.8-0.8h-9.3v-7.5h8c0.5,0,0.8-0.4,0.8-1c0-0.3-0.3-0.8-0.8-0.8h-8v-7.4H160.7z"/>
	<path d="M180.6,27.8h-13.2c-0.4,0-1,0.4-1,0.9c0,0.5,0.4,0.8,1,0.8h5.6v17.4c0,0.4,0.4,0.9,1,0.9c0.5,0,1-0.4,1-0.9V29.5h5.6
		c0.6,0,1-0.3,1-0.9C181.5,28.3,181,27.8,180.6,27.8z"/>
	<path d="M188.5,27.8c-0.5,0-1,0.4-1,0.9v18.2c0,0.5,0.4,0.9,1,0.9c0.4,0,0.8-0.4,0.8-0.9V28.7C189.3,27.8,188.7,27.8,188.5,27.8z"
		/>
	<path d="M207.1,29.3c2,0,3.8,0.6,5.3,1.7c0.2,0.2,0.6,0.4,1.3-0.1c0.2-0.2,0.3-0.5,0.2-0.7c0-0.3-0.2-0.5-0.4-0.5
		c-1.7-1.4-4.1-2.3-6.5-2.3c-5.7,0-10.3,4.6-10.3,10.3c0,5.6,4.6,10.1,10.3,10.1c2.4,0,4.5-0.7,6.3-2.1c0.2-0.1,0.4-0.3,0.4-0.6
		c0-0.2,0-0.4-0.1-0.5c-0.3-0.4-0.7-0.5-1.3-0.3c-1.6,1.2-3.5,1.9-5.3,1.9c-4.7,0-8.5-3.8-8.5-8.5C198.5,33,202.3,29.3,207.1,29.3z"
		/>
	<path d="M234.1,46.4l-6.8-18.2l-0.2-0.2c-0.1-0.1-0.5-0.4-0.8-0.4c-0.2,0-0.7,0-0.8,0.6l-6.8,18.2l0,0.2c0,0.2,0,0.8,0.5,0.9l0.3,0
		c0.4,0,0.7-0.2,0.7-0.6l1.6-4.4h8.9l1.6,4.4l0.2,0.2c0.1,0.1,0.5,0.4,0.8,0.4h0.3l0,0c0.2-0.1,0.4-0.3,0.5-0.5
		C234.3,46.8,234.2,46.6,234.1,46.4z M230.1,40.9h-7.5l3.6-9.8L230.1,40.9z"/>
</g>
<g>
	
		<linearGradient id="SVGID_1_" gradientUnits="userSpaceOnUse" x1="0" y1="-481.974" x2="74.5" y2="-481.974" gradientTransform="matrix(1 0 0 -1 0 -444.724)">
		<stop  offset="0" style="stop-color:#2BC3F2"/>
		<stop  offset="0.3145" style="stop-color:#28C0F0"/>
		<stop  offset="0.5857" style="stop-color:#1EB5EB"/>
		<stop  offset="0.8401" style="stop-color:#0EA3E1"/>
		<stop  offset="1" style="stop-color:#0094D9"/>
	</linearGradient>
	<polygon class="st0" points="74.5,0 0,0 0,74.5 36.8,37.7 	"/>
	
		<linearGradient id="SVGID_2_" gradientUnits="userSpaceOnUse" x1="-2.223446e-05" y1="-481.974" x2="74.54" y2="-481.974" gradientTransform="matrix(1 0 0 -1 0 -444.724)">
		<stop  offset="0" style="stop-color:#54B848"/>
		<stop  offset="0.3764" style="stop-color:#00A551"/>
		<stop  offset="0.634" style="stop-color:#007F3C"/>
		<stop  offset="0.8659" style="stop-color:#00622C"/>
		<stop  offset="1" style="stop-color:#005826"/>
	</linearGradient>
	<polygon class="st1" points="36.8,37.7 74.5,74.5 37.3,38.1 74.5,74.5 74.5,0 	"/>
	
		<linearGradient id="SVGID_3_" gradientUnits="userSpaceOnUse" x1="0" y1="-500.824" x2="74.5" y2="-500.824" gradientTransform="matrix(1 0 0 -1 0 -444.724)">
		<stop  offset="0" style="stop-color:#DFC494"/>
		<stop  offset="0.5" style="stop-color:#C6973C"/>
		<stop  offset="1" style="stop-color:#BE7C26"/>
	</linearGradient>
	<polygon class="st2" points="0,74.5 74.5,74.5 36.8,37.7 	"/>
</g>
<g>
	
		<linearGradient id="SVGID_4_" gradientUnits="userSpaceOnUse" x1="0" y1="-481.974" x2="74.5" y2="-481.974" gradientTransform="matrix(1 0 0 -1 0 -444.724)">
		<stop  offset="0" style="stop-color:#2BC3F2"/>
		<stop  offset="0.3145" style="stop-color:#28C0F0"/>
		<stop  offset="0.5857" style="stop-color:#1EB5EB"/>
		<stop  offset="0.8401" style="stop-color:#0EA3E1"/>
		<stop  offset="1" style="stop-color:#0094D9"/>
	</linearGradient>
	<polygon class="st3" points="74.5,0 0,0 0,74.5 36.8,37.7 	"/>
	
		<linearGradient id="SVGID_5_" gradientUnits="userSpaceOnUse" x1="-2.223446e-05" y1="-481.974" x2="74.54" y2="-481.974" gradientTransform="matrix(1 0 0 -1 0 -444.724)">
		<stop  offset="0" style="stop-color:#54B848"/>
		<stop  offset="0.3764" style="stop-color:#00A551"/>
		<stop  offset="0.634" style="stop-color:#007F3C"/>
		<stop  offset="0.8659" style="stop-color:#00622C"/>
		<stop  offset="1" style="stop-color:#005826"/>
	</linearGradient>
	<polygon class="st4" points="36.8,37.7 74.5,74.5 37.3,38.1 74.5,74.5 74.5,0 	"/>
	
		<linearGradient id="SVGID_6_" gradientUnits="userSpaceOnUse" x1="0" y1="-500.824" x2="74.5" y2="-500.824" gradientTransform="matrix(1 0 0 -1 0 -444.724)">
		<stop  offset="0" style="stop-color:#DFC494"/>
		<stop  offset="0.5" style="stop-color:#C6973C"/>
		<stop  offset="1" style="stop-color:#BE7C26"/>
	</linearGradient>
	<polygon class="st5" points="0,74.5 74.5,74.5 36.8,37.7 	"/>
</g>
</svg>
